
######## ######## ######## ##               ######## ########  ######## ######## 
##       ##       ##       ##               ##       ##     ## ##       ##       
##       ##       ##       ##               ##       ##     ## ##       ##       
######   ######   ######   ##       ####### ######   ########  ######   ######   
##       ##       ##       ##               ##       ##   ##   ##       ##       
##       ##       ##       ##               ##       ##    ##  ##       ##       
##       ######## ######## ########         ##       ##     ## ######## ######## 


Genre:Sci-Fi | Thriller
Language:English
IMDb:http://www.imdb.com/title/tt1523267/
Source:BluRay.x264-LEVERAGE


Format : MPEG-4
Format profile : Base Media
Codec ID : isom
File size : 2.18 GiB
Duration : 1h 31mn
Overall bit rate : 3 399 Kbps


Video
Format profile : High@L4.1
Format settings, CABAC : Yes
Format settings, ReFrames : 3 frames
Codec ID : avc1
Codec ID/Info : Advanced Video Coding
Duration : 1h 31mn
Bit rate mode : Variable
Bit rate : 3 000 Kbps
Maximum bit rate : 26.1 Mbps
Width : 1 280 pixels
Height : 720 pixels
Display aspect ratio : 16:9
Frame rate mode : Constant
Frame rate : 23.976 fps
Color space : YUV
Chroma subsampling : 4:2:0
Bit depth : 8 bits
Scan type : Progressive
Bits/(Pixel*Frame) : 0.136
Stream size : 1.89 GiB (87%)
Writing library : x264 


Audio
ID : 2
Format : AAC
Format/Info : Advanced Audio Codec
Format version : Version 4
Format profile : LC
Format settings, SBR : No
Codec ID : 40
Duration : 1h 31mn
Bit rate mode : Variable
Bit rate : 446 Kbps
Maximum bit rate : 536 Kbps
Channel(s) : 6 channels
Channel positions : Front: L C R, Side: L R, LFE
Sampling rate : 48.0 KHz
Stream size : 293 MiB (13%)
Encoded date : UTC 2011-03-10 23:26:41
Tagged date : UTC 2011-03-10 23:27:15



Plot:
When a solar eclipse sends a colossal blast of super chilled air towards the earth, it then sets off a catastrophic chain of events that threatens to engulf the world in ice and begin a new Ice Age

Greets:

INK,CRYS,IMAGINE,LKRG,FXG,3Li,FLAWL3SS,TA,iLLUSiON,ViSiON,DTRG SAFCuk009,LU,TheFalcon007,MYSTiC,PrisM,Noir,WBZ,LAP,Rx,Kingdom,SAFCuk009+Fabreezy,HDLiTE,TWiZTED,ExtraTorrentRG.ELEKTRI4KA,MAGNAT,CM8
And to all the other p2p grps past and present






================================== 
http://thepiratebay.org/user/hiest
==================================






Screenshots:
 
http://www.postimg.com/31000/photo-30115.jpg
 
http://www.postimg.com/31000/photo-30116.jpg
 
http://www.postimg.com/31000/photo-30117.jpg
 
http://www.postimg.com/31000/photo-30118.jpg
 
http://www.postimg.com/31000/photo-30119.jpg



######## ######## ######## ##               ######## ########  ######## ######## 
##       ##       ##       ##               ##       ##     ## ##       ##       
##       ##       ##       ##               ##       ##     ## ##       ##       
######   ######   ######   ##       ####### ######   ########  ######   ######   
##       ##       ##       ##               ##       ##   ##   ##       ##       
##       ##       ##       ##               ##       ##    ##  ##       ##       
##       ######## ######## ########         ##       ##     ## ######## ######## 

